<svg width="234" height="201" viewBox="0 0 234 201" fill="none" xmlns="http://www.w3.org/2000/svg">
<path fill-rule="evenodd" clip-rule="evenodd" d="M29.0963 25.873C29.0963 37.3083 36.774 46.9504 47.2559 49.9258C38.4044 64.8464 33.3226 82.2664 33.3226 100.873C33.3226 156.102 78.0941 200.873 133.323 200.873C188.551 200.873 233.323 156.102 233.323 100.873C233.323 45.6445 188.551 0.873047 133.323 0.873047C112.754 0.873047 93.6356 7.08301 77.7402 17.7305C74.3628 7.9209 65.0526 0.873047 54.0963 0.873047C40.2892 0.873047 29.0963 12.0659 29.0963 25.873ZM15.7198 77.1389C24.0042 77.1389 30.7198 70.4231 30.7198 62.1389C30.7198 53.8547 24.0042 47.1389 15.7198 47.1389C7.43555 47.1389 0.719849 53.8547 0.719849 62.1389C0.719849 70.4231 7.43555 77.1389 15.7198 77.1389Z" fill="#D9D9D9"/>
</svg>
