<svg width="147" height="151" viewBox="0 0 147 151" fill="none" xmlns="http://www.w3.org/2000/svg">
<path d="M145.974 74.9151C147.013 75.0146 147.148 76.4892 146.188 76.8999C83.1879 103.841 143.349 110.874 131.861 124.223C42.4716 94.6115 103.945 146.788 86.1917 149.464C68.438 152.14 50.3134 148.358 35.1112 138.806C19.9089 129.254 8.63765 114.565 3.34548 97.4086C-1.9467 80.252 -0.908657 61.7663 6.27099 45.3101C13.4506 28.8539 26.2955 15.5193 42.4716 7.72915C58.6477 -0.0610003 77.0817 -1.78976 94.4242 2.85699C113.431 7.94963 38.4859 57.0965 127.99 35.3325C129.154 35.0497 129.797 36.723 128.731 37.2677L75.4971 64.4701C73.7163 65.3801 74.226 68.0515 76.2167 68.242L145.974 74.9151Z" fill="#D9D9D9"/>
</svg>
