<svg width="503" height="396" viewBox="0 0 503 396" fill="none" xmlns="http://www.w3.org/2000/svg">
<g clip-path="url(#clip0_3_13)">
<rect width="503" height="395" transform="translate(0 0.5)" fill="white"/>
<path d="M300.945 197.567C300.945 231.309 289.568 264.066 268.654 290.544C247.739 317.022 218.507 335.675 185.683 343.489C152.858 351.304 118.357 347.822 87.7552 333.608C57.1533 319.394 32.2377 295.276 17.0343 265.154C1.83097 235.031 -2.7721 200.662 3.96891 167.6C70.3872 208.383 28.4012 104.715 54.1843 82.9487C79.9673 61.1827 44.2561 211.28 123.638 49.3707C206.679 126.201 253.12 -16.95 280.265 3.09143L181.635 155.999C172.284 149.095 160.879 145.546 149.262 145.924C137.645 146.303 126.495 150.587 117.614 158.085C108.733 165.582 102.639 175.856 100.316 187.244C97.9944 198.633 99.58 210.472 104.817 220.848C110.054 231.225 118.637 239.533 129.178 244.429C139.72 249.325 151.604 250.525 162.911 247.833C174.218 245.141 184.287 238.715 191.492 229.595C198.696 220.474 202.615 209.19 202.615 197.567H300.945Z" fill="#D9D9D9"/>
<path d="M203 199.078C203 165.336 214.376 132.58 235.291 106.101C256.206 79.6234 285.438 60.9702 318.262 53.1561C351.087 45.342 385.588 48.8234 416.19 63.0377C446.792 77.2521 471.707 101.369 486.911 131.492C502.114 161.615 506.717 195.984 499.976 229.046C433.558 188.262 475.544 291.931 449.761 313.697C423.978 335.463 459.689 185.366 380.307 347.275C297.266 270.444 250.825 413.595 223.68 393.554L322.31 240.647C331.661 247.55 343.066 251.1 354.683 250.721C366.3 250.343 377.449 246.058 386.331 238.561C395.212 231.063 401.306 220.79 403.629 209.401C405.951 198.012 404.365 186.173 399.128 175.797C393.891 165.421 385.308 157.113 374.767 152.216C364.225 147.32 352.341 146.121 341.034 148.813C329.727 151.504 319.658 157.93 312.453 167.051C305.249 176.172 301.33 187.455 301.33 199.078H203Z" fill="#D9D9D9"/>
</g>
<defs>
<clipPath id="clip0_3_13">
<rect width="503" height="395" fill="white" transform="translate(0 0.5)"/>
</clipPath>
</defs>
</svg>
