<svg width="533" height="421" viewBox="0 0 533 421" fill="none" xmlns="http://www.w3.org/2000/svg">
<rect width="533" height="421" fill="#F5F5F5"/>
<path d="M209.136 209.45C209.322 175.708 220.879 143.015 241.94 116.652C263.001 90.2902 292.335 71.7987 325.202 64.166C358.069 56.5333 392.55 60.2051 423.073 74.5882C453.596 88.9714 478.378 113.226 493.415 143.432C508.452 173.638 512.865 208.032 505.942 241.056C439.75 199.907 481.162 303.806 455.26 325.429C429.357 347.052 465.896 197.155 385.621 358.623C303.006 281.335 255.775 424.228 228.741 404.037L328.214 251.676C337.527 258.631 348.912 262.244 360.531 261.929C372.15 261.615 383.323 257.392 392.246 249.944C401.168 242.495 407.319 232.256 409.704 220.88C412.089 209.504 410.569 197.657 405.389 187.252C400.209 176.847 391.673 168.491 381.159 163.537C370.644 158.582 358.767 157.318 347.445 159.947C336.123 162.576 326.019 168.946 318.764 178.027C311.509 187.108 307.528 198.37 307.464 209.993L209.136 209.45Z" fill="#D9D9D9"/>
<path d="M307.317 208.253C307.317 241.995 295.941 274.752 275.026 301.23C254.111 327.708 224.879 346.361 192.055 354.176C159.23 361.99 124.729 358.508 94.1273 344.294C63.5254 330.08 38.6098 305.963 23.4064 275.84C8.20304 245.717 3.59997 211.348 10.341 178.286C76.7593 219.069 34.7733 115.401 60.5564 93.6348C86.3394 71.8687 50.6281 221.966 130.01 60.0567C213.051 136.887 259.492 -6.264 286.637 13.7775L188.007 166.685C178.657 159.781 167.251 156.232 155.634 156.61C144.018 156.989 132.868 161.273 123.986 168.771C115.105 176.268 109.011 186.542 106.689 197.93C104.366 209.319 105.952 221.158 111.189 231.534C116.426 241.911 125.009 250.219 135.55 255.115C146.092 260.011 157.976 261.211 169.283 258.519C180.59 255.827 190.659 249.401 197.864 240.281C205.068 231.16 208.987 219.876 208.987 208.253L307.317 208.253Z" fill="#D9D9D9"/>
</svg>
