<svg width="412" height="509" viewBox="0 0 412 509" fill="none" xmlns="http://www.w3.org/2000/svg">
<path fill-rule="evenodd" clip-rule="evenodd" d="M215.142 205.204C181.443 198.769 146.579 203.461 115.981 218.583C84.7783 234.004 59.8335 259.372 45.1776 290.585C30.5205 321.799 27.0097 357.038 35.2103 390.605C43.4108 424.172 62.8458 454.109 90.3719 475.578C117.899 497.046 151.911 508.792 186.913 508.919C169.749 462.831 199.794 469.142 231.84 475.873C251.888 480.083 272.719 484.459 283.266 476.273C292.854 468.831 279.51 464.548 265.852 460.165C240.472 452.019 214.01 443.526 331.61 413.769C292.018 349.658 343.039 320.044 379.925 298.635C400.021 286.971 415.921 277.742 410.69 266.697L235.025 333.593C240.135 344.382 241.413 356.529 238.654 368.072C235.894 379.615 229.259 389.879 219.818 397.206C210.378 404.533 198.684 408.494 186.628 408.452C174.571 408.408 162.855 404.362 153.373 396.967C143.89 389.571 137.195 379.259 134.371 367.696C131.546 356.133 132.755 343.995 137.804 333.243C142.853 322.49 151.446 313.753 162.194 308.44C172.942 303.128 185.219 301.552 197.039 303.968L197.077 303.783C230.776 310.219 265.639 305.527 296.238 290.405C327.44 274.983 352.385 249.616 367.041 218.402C381.698 187.188 385.209 151.95 377.008 118.382C368.807 84.8148 349.373 54.8787 321.846 33.4096C294.319 11.9414 260.307 0.195093 225.305 0.0688629C242.469 46.1559 212.425 39.8455 180.378 33.1146C160.331 28.9038 139.499 24.5285 128.953 32.7142C119.364 40.1559 132.708 44.4387 146.366 48.8222C171.746 56.9679 198.208 65.4612 80.608 95.2185C120.201 159.33 69.1798 188.944 32.2931 210.353C12.1979 222.017 -3.70237 231.246 1.52866 242.291L177.193 175.394C172.084 164.605 170.805 152.458 173.565 140.915C176.324 129.372 182.96 119.109 192.4 111.782C201.841 104.455 213.534 100.493 225.591 100.536C237.648 100.579 249.364 104.626 258.846 112.021C268.328 119.416 275.023 129.729 277.848 141.292C280.673 152.855 279.463 164.993 274.414 175.745C269.366 186.497 260.773 195.235 250.024 200.548C239.276 205.859 227 207.435 215.18 205.02L215.142 205.204Z" fill="#D9D9D9"/>
</svg>
