<svg width="244" height="201" viewBox="0 0 244 201" fill="none" xmlns="http://www.w3.org/2000/svg">
<path fill-rule="evenodd" clip-rule="evenodd" d="M39.115 25.8284C39.115 37.2637 46.7927 46.9058 57.2744 49.8811C48.4231 64.8018 43.3413 82.2217 43.3413 100.828C43.3413 156.057 88.1128 200.828 143.341 200.828C198.57 200.828 243.341 156.057 243.341 100.828C243.341 45.5999 198.57 0.828369 143.341 0.828369C122.772 0.828369 103.654 7.03833 87.759 17.6858C84.3813 7.87622 75.0713 0.828369 64.115 0.828369C50.3079 0.828369 39.115 12.0212 39.115 25.8284ZM25.7385 77.0942C34.0227 77.0942 40.7385 70.3784 40.7385 62.0942C40.7385 53.8101 34.0227 47.0942 25.7385 47.0942C17.4543 47.0942 10.7385 53.8101 10.7385 62.0942C10.7385 70.3784 17.4543 77.0942 25.7385 77.0942ZM20.7385 90.8284C20.7385 96.3513 16.2615 100.828 10.7385 100.828C5.21558 100.828 0.738525 96.3513 0.738525 90.8284C0.738525 85.3054 5.21558 80.8284 10.7385 80.8284C16.2615 80.8284 20.7385 85.3054 20.7385 90.8284ZM5.73853 121.498C8.5 121.498 10.7385 119.26 10.7385 116.498C10.7385 113.737 8.5 111.498 5.73853 111.498C2.97705 111.498 0.738525 113.737 0.738525 116.498C0.738525 119.26 2.97705 121.498 5.73853 121.498Z" fill="#D9D9D9"/>
</svg>
